<?xml version="1.0" encoding="utf-8"?>
<!-- Generator: Adobe Illustrator 27.8.1, SVG Export Plug-In . SVG Version: 6.00 Build 0)  -->
<svg version="1.0" id="Camada_1" xmlns="http://www.w3.org/2000/svg" xmlns:xlink="http://www.w3.org/1999/xlink" x="0px" y="0px"
	 viewBox="0 0 274.6 100.4" enable-background="new 0 0 274.6 100.4" xml:space="preserve">
<polygon fill="#9A7C57" points="61.8,0 32.1,74.4 31.9,74.4 2.7,0 0,0 30.1,76.6 36.8,76.6 67.3,0 "/>
<rect x="184.7" y="0" fill="#9A7C57" width="5.3" height="76.6"/>
<polygon fill="#9A7C57" points="229.5,0 229.5,76.6 274.6,76.6 274.6,74.4 234.8,74.4 234.8,0 "/>
<g>
	<defs>
		<rect id="SVGID_1_" y="0" width="274.6" height="100.4"/>
	</defs>
	<clipPath id="SVGID_00000004508098529756692200000012036954794293102750_">
		<use xlink:href="#SVGID_1_"  overflow="visible"/>
	</clipPath>
	<path clip-path="url(#SVGID_00000004508098529756692200000012036954794293102750_)" fill="#9A7C57" d="M105.1,74.4v-24v-9.6v-2.2
		v-8.9c5.3-0.8,12.2-0.9,20.4,0.9c7.8,1.7,14.2,1.5,19.3,0.6c0.7-0.1,1.4-0.3,2-0.4v-2.3c-5.1,1.3-12,1.8-20.8-0.1
		c-8.4-1.8-15.4-1.7-20.9-0.9V2.2h44.2V0H99.8v76.6h51.4v-2.2H105.1z"/>
	<path clip-path="url(#SVGID_00000004508098529756692200000012036954794293102750_)" fill="#58595B" d="M175.3,91.8h-2v2.2h2
		c1,0,1.6-0.4,1.6-1.1v0C176.9,92.2,176.2,91.8,175.3,91.8 M176.6,90.5c0-0.6-0.5-1.1-1.4-1.1h-1.8v2.2h1.9
		C176,91.6,176.6,91.2,176.6,90.5L176.6,90.5z M173.1,89.2h2.1c0.6,0,1,0.2,1.3,0.4c0.2,0.2,0.3,0.5,0.3,0.8v0
		c0,0.7-0.4,1.1-0.9,1.2c0.7,0.1,1.2,0.6,1.2,1.2v0c0,0.8-0.7,1.3-1.8,1.3h-2.2V89.2z"/>
</g>
<polygon fill="#58595B" points="179.7,92.2 177.6,89.2 177.9,89.2 179.9,92 181.8,89.2 182.1,89.2 180,92.2 180,94.3 179.7,94.3 "/>
<g>
	<defs>
		<rect id="SVGID_00000010277152456456902370000013183975916335941038_" y="0" width="274.6" height="100.4"/>
	</defs>
	<clipPath id="SVGID_00000073714190609408267990000013904886231936314242_">
		<use xlink:href="#SVGID_00000010277152456456902370000013183975916335941038_"  overflow="visible"/>
	</clipPath>
	<path clip-path="url(#SVGID_00000073714190609408267990000013904886231936314242_)" fill="#58595B" d="M185.6,98.7l0.4-0.4
		c1.1,1.1,2.4,1.6,4,1.6c1.9,0,3.1-1,3.1-2.4v0c0-1.3-0.7-1.9-3.3-2.5c-2.6-0.5-3.7-1.4-3.7-2.9v0c0-1.5,1.5-2.8,3.5-2.8
		c1.5,0,2.6,0.5,3.7,1.3l-0.3,0.4c-1-0.8-2.1-1.2-3.4-1.2c-1.8,0-2.9,1.1-2.9,2.3v0c0,1.2,0.7,1.9,3.3,2.5c2.7,0.5,3.6,1.4,3.6,2.9
		v0c0,1.7-1.4,2.9-3.6,2.9C188.3,100.4,186.9,99.8,185.6,98.7"/>
	<path clip-path="url(#SVGID_00000073714190609408267990000013904886231936314242_)" fill="#58595B" d="M201.9,87.9
		c-0.3-0.2-0.6-0.3-0.9-0.3c-0.4,0-0.6,0.2-0.8,0.8l-0.4-0.1c0.2-0.9,0.6-1.2,1.2-1.2c0.3,0,0.7,0.2,1.1,0.4
		c0.3,0.2,0.6,0.3,0.9,0.3c0.4,0,0.6-0.2,0.8-0.8l0.3,0.1c-0.2,0.9-0.6,1.2-1.2,1.2C202.6,88.2,202.3,88.1,201.9,87.9 M205,96.6
		l-3.1-6.6l-3.1,6.6H205z M201.7,89.4h0.5l5.1,10.9h-0.6l-1.5-3.1h-6.7l-1.5,3.1h-0.5L201.7,89.4z"/>
	<path clip-path="url(#SVGID_00000073714190609408267990000013904886231936314242_)" fill="#58595B" d="M220.1,94.9L220.1,94.9
		c0-2.8-2-5.1-4.8-5.1c-2.9,0-4.8,2.3-4.8,5.1v0c0,2.7,2,5.1,4.9,5.1C218.2,99.9,220.1,97.6,220.1,94.9 M209.9,94.9L209.9,94.9
		c0-3,2.1-5.6,5.4-5.6c3.3,0,5.4,2.6,5.4,5.6v0c0,2.9-2.1,5.6-5.4,5.6C212,100.4,209.9,97.8,209.9,94.9"/>
	<path clip-path="url(#SVGID_00000073714190609408267990000013904886231936314242_)" fill="#58595B" d="M229.8,98.3l0.4-0.2
		c0.6,1.2,1.5,1.9,2.7,1.9c1.5,0,2.6-1.1,2.6-3.3v-7.2h0.5v7.1c0,1.4-0.4,2.3-1,2.9c-0.6,0.6-1.3,0.9-2.2,0.9
		C231.5,100.4,230.4,99.6,229.8,98.3"/>
	<path clip-path="url(#SVGID_00000073714190609408267990000013904886231936314242_)" fill="#58595B" d="M250.5,94.9L250.5,94.9
		c0-2.8-2-5.1-4.8-5.1c-2.9,0-4.8,2.3-4.8,5.1v0c0,2.7,2,5.1,4.9,5.1C248.5,99.9,250.5,97.6,250.5,94.9 M240.3,94.9L240.3,94.9
		c0-3,2.1-5.6,5.4-5.6c3.3,0,5.4,2.6,5.4,5.6v0c0,2.9-2.1,5.6-5.4,5.6C242.4,100.4,240.3,97.8,240.3,94.9"/>
	<path clip-path="url(#SVGID_00000073714190609408267990000013904886231936314242_)" fill="#58595B" d="M254.5,98.7l0.4-0.4
		c1.1,1.1,2.4,1.6,4,1.6c1.9,0,3.1-1,3.1-2.4v0c0-1.3-0.7-1.9-3.3-2.5c-2.6-0.5-3.7-1.4-3.7-2.9v0c0-1.5,1.5-2.8,3.5-2.8
		c1.5,0,2.6,0.5,3.7,1.3l-0.3,0.4c-1-0.8-2.1-1.2-3.4-1.2c-1.8,0-2.9,1.1-2.9,2.3v0c0,1.2,0.7,1.9,3.3,2.5c2.7,0.5,3.6,1.4,3.6,2.9
		v0c0,1.7-1.4,2.9-3.6,2.9C257.1,100.4,255.7,99.8,254.5,98.7"/>
</g>
<path fill="#58595B" d="M266.6,89.5v10.8h7.7v-0.5h-7.1V95h6.4v-0.5h-6.4v-4.6h7.1v-0.5H266.6z M270.2,88.5h0.4l1.6-1.4l-0.6-0.3
	L270.2,88.5z"/>
</svg>
